<svg t="1601259020874" class="icon" viewBox="0 0 1024 1024" version="1.1" xmlns="http://www.w3.org/2000/svg" p-id="4696" width="128" height="128"><path d="M902.201711 480.394689a112.794099 112.794099 0 0 0-81.581587-34.536206h-3.414341a91.643317 91.643317 0 0 0-42.633933 14.291886 77.834878 77.834878 0 0 0-73.967306-60.430806 120.861611 120.861611 0 0 0-41.576394 9.064621 103.608616 103.608616 0 0 0-115.5437-43.933196v-107.868987a122.160873 122.160873 0 0 0-117.688994-127.9018 134.307465 134.307465 0 0 0-132.947772 127.9018v221.509117a118.595456 118.595456 0 0 0-79.315433-28.13054 123.03712 123.03712 0 0 0-87.624668 35.382237 134.367896 134.367896 0 0 0-8.732251 183.77008l177.606137 263.720035 3.625849 4.47188a259.852464 259.852464 0 0 0 24.172322 21.332074c58.406374 47.98206 194.013101 63.966008 301.670581 63.966008 290.067867 1.51077 314.240189-193.378578 314.240189-375.637888V573.186191a131.225494 131.225494 0 0 0-36.258483-92.519564z m-26.226969 166.698377c0 170.565949-18.763765 312.971142-250.274181 313.18265-118.746533 0-226.615521-21.332074-262.874004-50.94317-3.625848-3.02154-12.086161-10.666037-17.041488-15.349424l-177.817645-263.29702-3.41434-4.260372a70.885335 70.885335 0 0 1 6.828681-95.933904 61.367483 61.367483 0 0 1 42.633933-16.195455 57.409265 57.409265 0 0 1 40.277132 15.107701l100.194275 128.989554V256.770493a72.516967 72.516967 0 0 1 70.764474-63.966008 58.859605 58.859605 0 0 1 55.233756 63.966008v211.054588l46.894305-28.13054a115.181115 115.181115 0 0 1 41.153379-14.926409 42.633933 42.633933 0 0 1 45.323104 35.593745l11.512068 37.739038 33.478666-19.398289a109.832989 109.832989 0 0 1 41.153379-15.107701c8.097728 0 12.3581 6.043081 23.024137 42.633933l15.983948 52.453939 41.364886-27.193862a196.762703 196.762703 0 0 1 36.893007-21.332075h3.414341a50.943169 50.943169 0 0 1 37.316022 15.772441 66.957333 66.957333 0 0 1 18.129242 47.31732v73.786014z m0 0" fill="#d81e06" p-id="4697"></path><path d="M181.655001 311.128002c15.983948-315.962467 474.381824-317.443022 490.335557 0 2.145294 41.153379 66.081086 41.364886 63.966007 0C727.405606 143.341871 601.135438 0.936677 426.792564 0.936677S125.99823 142.072824 117.688994 311.128002c-2.145294 41.364886 61.820714 41.153379 63.966007 0z m0 0" fill="#d81e06" p-id="4698"></path></svg>
